<svg width="144" height="96" viewBox="0 0 144 96" fill="none" xmlns="http://www.w3.org/2000/svg">
<g clip-path="url(#clip0_8_109)">
<path d="M63.9568 33.852C62.5298 32.4307 62.5298 32.4307 63.9568 31.1387C71.7406 23.3863 79.6541 15.634 87.4379 7.75241V56.7215V57.1091C79.6541 49.3567 71.7406 41.6044 63.9568 33.852ZM130.249 53.4913C129.6 52.8453 128.692 52.4577 127.914 52.4577H99.7622V0.775291C99.7622 0.258467 99.373 -0.12915 98.8541 -0.12915H88.2162C88.0865 -0.12915 88.0865 -0.12915 87.9568 -0.12915C84.8433 -0.12915 81.7298 -0.12915 78.746 -0.12915C77.4487 -0.12915 76.5406 0.258467 75.6325 1.16291C68.6271 8.14003 61.6217 15.1171 54.6162 22.0943C52.2811 24.42 49.4271 25.8412 46.0541 25.8412C38.0108 25.9704 29.9676 25.9704 21.9244 25.8412C18.2919 25.8412 15.3081 22.6111 15.5676 18.9933C15.6973 15.5048 18.6811 12.7914 22.3135 12.6622C29.5784 12.6622 36.973 12.6622 44.2379 12.6622C45.146 12.6622 45.7946 12.4038 46.4433 11.7578C49.946 8.14003 53.5784 4.65147 57.0811 1.16291C57.3406 0.904497 57.4703 0.516879 57.7298 0.129261C57.2108 0.258467 56.8217 5.55366e-05 56.5622 5.55366e-05C50.7244 5.55366e-05 45.0163 5.55366e-05 39.1784 5.55366e-05C33.6 5.55366e-05 27.8919 5.55366e-05 22.3135 5.55366e-05C19.0703 5.55366e-05 16.0865 0.646085 13.1027 2.19656C2.72436 7.36479 -0.778343 20.9314 5.9676 30.3634C9.98922 36.0485 15.5676 38.7618 22.4433 38.7618C29.9676 38.7618 37.4919 38.7618 45.146 38.7618C48.9081 38.7618 52.1514 39.9247 54.746 42.638C61.7514 49.6151 68.6271 56.463 75.6325 63.4402C76.5406 64.3446 77.4487 64.8614 78.746 64.8614C81.8595 64.8614 84.973 64.8614 88.0865 64.8614C88.2162 64.8614 88.2162 64.8614 88.346 64.8614H91.7189H98.9838H141.016C141.276 64.8614 141.405 64.7322 141.535 64.7322L130.249 53.4913Z" fill="#292725"/>
<path d="M46.5731 52.9745C45.7947 52.1993 45.0164 51.9409 43.9785 51.9409C36.7136 51.9409 29.4488 51.9409 22.3136 51.9409C16.3461 51.9409 10.638 50.5196 5.44878 47.2895C4.6704 46.7727 3.76229 46.385 2.98392 45.739C2.72446 46.1266 2.59473 46.2558 2.59473 46.385C2.59473 46.6435 2.59473 46.9019 2.59473 47.1603C2.85419 49.7444 3.50283 52.1993 4.80013 54.3958C8.69202 61.3729 14.6596 64.7323 22.5731 64.8615C33.8596 64.9907 45.2758 64.8615 56.5623 64.8615C56.9515 64.8615 57.3407 64.7323 57.7299 64.6031C57.4704 64.2155 57.3407 63.8278 57.0812 63.5694C53.5785 59.9517 49.9461 56.5923 46.5731 52.9745Z" fill="#292725"/>
<path d="M4.54054 95.8709V84.3716H0V82.6919H10.8973V84.3716H6.35676V95.8709H4.54054Z" fill="#292725"/>
<path d="M31.0054 95.8709L27.6324 91.0903H29.5783L32.9513 95.8709H31.0054ZM24.1297 91.2195L23.3513 90.315H27.3729C28.5405 90.315 29.4486 90.0566 30.0973 89.5398C30.7459 89.023 31.0054 88.2477 31.0054 87.3433C31.0054 86.4389 30.7459 85.6636 30.0973 85.1468C29.4486 84.63 28.5405 84.3716 27.3729 84.3716H23.3513L24.2594 83.4671V91.2195H24.1297ZM22.3135 95.8709V82.6919H27.3729C28.5405 82.6919 29.4486 82.8211 30.3567 83.2087C31.1351 83.5963 31.7837 84.1132 32.1729 84.7592C32.5621 85.4052 32.8216 86.3097 32.8216 87.2141C32.8216 88.1185 32.5621 89.023 32.1729 89.669C31.7837 90.315 31.1351 90.8319 30.3567 91.2195C29.5783 91.6071 28.5405 91.7363 27.3729 91.7363H23.3513L24.2594 90.8319V95.6125H22.3135V95.8709Z" fill="#292725"/>
<path d="M45.7946 92.5115L46.3135 90.9611H53.7081L54.227 92.5115H45.7946ZM43.3297 95.8709L49.2973 82.6919H51.1135L57.0811 95.8709H55.1351L49.8162 83.8547H50.5946L45.2757 95.8709H43.3297Z" fill="#292725"/>
<path d="M70.3135 94.1912H73.8162C74.854 94.1912 75.8919 93.9328 76.6703 93.5452C77.4486 93.1576 78.0973 92.5115 78.4865 91.8655C78.8757 91.0903 79.1351 90.315 79.1351 89.2814C79.1351 88.2477 78.8757 87.4725 78.4865 86.6973C78.0973 85.922 77.4486 85.4052 76.6703 85.0176C75.8919 84.63 74.9838 84.3716 73.8162 84.3716H70.3135V94.1912ZM68.3676 95.8709V82.6919H73.9459C75.373 82.6919 76.5405 82.9503 77.7081 83.4671C78.7459 83.984 79.654 84.7592 80.173 85.7928C80.8216 86.8265 81.0811 87.8601 81.0811 89.1522C81.0811 90.4442 80.8216 91.6071 80.173 92.5115C79.5243 93.5452 78.7459 94.3204 77.7081 94.8373C76.6703 95.3541 75.373 95.6125 73.9459 95.6125H68.3676V95.8709Z" fill="#292725"/>
<path d="M95.0919 82.6919H93.2756V95.7417H95.0919V82.6919Z" fill="#292725"/>
<path d="M108.454 95.8709V82.6919H110.011L118.703 93.5452H117.795V82.6919H119.741V95.8709H118.184L109.492 85.1468H110.27V95.8709H108.454Z" fill="#292725"/>
<path d="M142.184 94.0618V89.152H144V94.3202L142.184 94.0618ZM138.941 95.9999C137.903 95.9999 136.995 95.8707 136.087 95.4831C135.178 95.0955 134.53 94.7079 133.881 94.0618C133.232 93.4158 132.714 92.7698 132.454 91.9945C132.065 91.2193 131.935 90.3149 131.935 89.2812C131.935 88.2476 132.065 87.4723 132.454 86.5679C132.843 85.7926 133.232 85.0174 133.881 84.5006C134.53 83.8546 135.308 83.4669 136.087 83.0793C136.995 82.6917 137.903 82.5625 138.941 82.5625C139.978 82.5625 140.887 82.6917 141.795 83.0793C142.703 83.4669 143.351 83.9838 144 84.6298L142.832 85.7926C142.314 85.2758 141.665 84.8882 141.016 84.6298C140.368 84.3714 139.719 84.2422 138.941 84.2422C138.162 84.2422 137.514 84.3714 136.865 84.6298C136.216 84.8882 135.697 85.2758 135.178 85.6634C134.66 86.0511 134.4 86.6971 134.141 87.2139C133.881 87.8599 133.751 88.506 133.751 89.2812C133.751 89.9272 133.881 90.7025 134.141 91.2193C134.4 91.8653 134.789 92.3822 135.178 92.7698C135.697 93.2866 136.216 93.545 136.865 93.8034C137.514 94.0618 138.162 94.191 138.941 94.191C139.589 94.191 140.368 94.0618 141.016 93.8034C141.665 93.545 142.314 93.1574 142.832 92.7698L143.87 94.191C143.222 94.7079 142.443 95.0955 141.535 95.4831C140.757 95.8707 139.849 95.9999 138.941 95.9999Z" fill="#292725"/>
</g>
<defs>
<clipPath id="clip0_8_109">
<rect width="144" height="96" fill="white"/>
</clipPath>
</defs>
</svg>
